<svg xmlns="http://www.w3.org/2000/svg" viewBox="0 0 584.89 102.38"><defs><style>.cls-1{fill:rgb(132,228,189);}</style></defs><g id="Layer_2" data-name="Layer 2"><g id="Layer_1-2" data-name="Layer 1"><path class="cls-1" d="M231.46,80.29v8.94H187.21V18h42.93v9H197.86V48.42h26.7v8.93h-26.7V80.29Z"/><path class="cls-1" d="M287.39,89.23h-42V18H256V80.29h31.37Z"/><path class="cls-1" d="M341.79,89.23h-42V18h10.66V80.29h31.36Z"/><path class="cls-1" d="M348.59,89.23l32.79-72.07H385l32.48,72.07H405.84l-6.7-14.52H367l-6.69,14.52Zm22.23-23.35h24.46L383.1,37.46Z"/><path class="cls-1" d="M485.12,18V89.43l-2.44.71L437.61,40.81V89.23H427.16V17.77l2.43-.81,45.07,49.63V18Z"/><path class="cls-1" d="M502.37,18.28c46.9-7.11,58,18.77,58,35.42,0,16-11.78,41.92-58,35.53ZM513.13,80c18,1.93,35.73-6.6,35.73-26.39,0-16.55-12.48-29.13-35.73-26.29Z"/><path class="cls-1" d="M574.24,18h10.65V89.23H574.24Z"/><path class="cls-1" d="M15.93,51.22c0-3.07,0-7.42-.09-12.45C15.75,28,15.59,9.91,15.76,2.18l0-1.94H0v1.9C0,5.28,0,9.31,0,13.79c0,8,0,17,0,25.12.05,4.75.09,9.24.09,12.31a50.33,50.33,0,0,0,15.3,36.11,52,52,0,0,0,31.37,15V86.56A35.41,35.41,0,0,1,15.93,51.22Z"/><path class="cls-1" d="M108.83,0C102.67,0,93,.08,83.61.15,74.68.23,68.09.3,62.29.3h-1.9V16.09h1.9c5.8,0,12.46-.08,21.45-.15,9.32-.07,19-.15,25.09-.15a35.28,35.28,0,1,1,0,70.56c-3.12,0-7.6,0-12.34.09-8.17.07-17.3.07-25.35.08H58.43l.15,15.68,1.81.07c1.8.07,3.85.09,6.12.09H71l5.12,0c6.76,0,14.09-.07,20.56-.13,4.7,0,9.14-.08,12.2-.08A51.07,51.07,0,1,0,108.83,0Z"/></g></g></svg>
