<svg xmlns="http://www.w3.org/2000/svg" viewBox="0 0 584.89 102.38" fill="#d35">
  <path
    d="M231.46 80.29v8.94h-44.25V18h42.93v9h-32.28v21.42h26.7v8.93h-26.7v22.94Zm55.93 8.94h-42V18H256v62.29h31.37Zm54.4 0h-42V18h10.66v62.29h31.36Zm6.8 0 32.79-72.07H385l32.48 72.07h-11.64l-6.7-14.52H367l-6.69 14.52Zm22.23-23.35h24.46L383.1 37.46ZM485.12 18v71.43l-2.44.71-45.07-49.33v48.42h-10.45V17.77l2.43-.81 45.07 49.63V18Zm17.25.28c46.9-7.11 58 18.77 58 35.42 0 16-11.78 41.92-58 35.53ZM513.13 80c18 1.93 35.73-6.6 35.73-26.39 0-16.55-12.48-29.13-35.73-26.29Zm61.11-62h10.65v71.23h-10.65ZM15.93 51.22c0-3.07 0-7.42-.09-12.45-.09-10.77-.25-28.86-.08-36.59V.24H0v38.67c.05 4.75.09 9.24.09 12.31a50.33 50.33 0 0 0 15.3 36.11 52 52 0 0 0 31.37 15V86.56a35.41 35.41 0 0 1-30.83-35.34ZM108.83 0C102.67 0 93 .08 83.61.15 74.68.23 68.09.3 62.29.3h-1.9v15.79h1.9c5.8 0 12.46-.08 21.45-.15 9.32-.07 19-.15 25.09-.15a35.28 35.28 0 1 1 0 70.56c-3.12 0-7.6 0-12.34.09-8.17.07-17.3.07-25.35.08H58.43l.15 15.68 1.81.07c1.8.07 3.85.09 6.12.09h9.61c6.76 0 14.09-.07 20.56-.13 4.7 0 9.14-.08 12.2-.08A51.07 51.07 0 1 0 108.83 0Z"
  />
</svg>
