<svg
  width="40"
  height="40"
  viewBox="0 0 40 40"
  fill="none"
  xmlns="http://www.w3.org/2000/svg"
>
  <path
    d="M20 40C31.0457 40 40 31.0457 40 20C40 8.95431 31.0457 0 20 0C8.95431 0 0 8.95431 0 20C0 31.0457 8.95431 40 20 40Z"
    fill="#D2E2F1"
  />
  <path
    d="M27.8649 28.7764C27.6197 26.6027 26.2183 24.7804 24.2898 23.9429C24.9558 23.0685 25.3399 21.9449 25.3399 20.7559C25.3766 17.8142 22.9578 15.4321 20.0161 15.4321C17.0743 15.4321 14.6555 17.8142 14.6555 20.7927C14.6555 21.9858 15.0396 23.1053 15.7056 23.9796C13.8138 24.8213 12.4124 26.6068 12.1305 28.8131L11.6034 33.0869C11.4972 34.0675 12.1305 34.9786 13.0743 35.1911C15.2806 35.6446 17.5932 35.8897 19.9425 35.8897C22.2919 35.8897 24.6044 35.6446 26.8108 35.1911C27.7587 34.9827 28.4206 34.0716 28.2816 33.0869L27.8649 28.7764ZM20.0161 17.0378C22.0467 17.0378 23.7301 18.6844 23.7301 20.7518C23.7301 22.7825 22.0835 24.4658 20.0161 24.4658C17.9487 24.4658 16.3021 22.8193 16.3021 20.7518C16.3021 18.7212 17.9854 17.0378 20.0161 17.0378ZM26.5697 33.5404C22.3654 34.4515 17.6708 34.4515 13.4992 33.5404C13.3603 33.5036 13.2908 33.4015 13.3235 33.2585L13.8506 28.9847C14.059 27.1298 15.4277 25.6916 17.1438 25.234C17.9854 25.7937 18.9987 26.1083 20.0855 26.1083C21.1724 26.1083 22.1897 25.7937 23.0273 25.234C24.7433 25.6875 26.1121 27.1257 26.3205 28.9847L26.8475 33.2585C26.7781 33.3688 26.6759 33.5077 26.5697 33.5404Z"
    fill="#144E81"
  />
  <path
    d="M19.2113 9.78553V12.6946C19.2113 13.1481 19.5627 13.4995 20.0162 13.4995C20.4697 13.4995 20.8211 13.1481 20.8211 12.6946V9.78553C22.0141 9.43415 22.8885 8.31464 22.8885 7.01944C22.8885 5.40964 21.5933 4.11035 19.9794 4.11035C18.3655 4.11035 17.0703 5.40555 17.0703 7.01944C17.1112 8.31464 17.9855 9.43824 19.2113 9.78553ZM20.0162 5.75693C20.7148 5.75693 21.2787 6.31668 21.2787 7.01944C21.2787 7.7222 20.7189 8.28196 20.0162 8.28196C19.3134 8.28196 18.7537 7.7222 18.7537 7.01944C18.7537 6.31668 19.3175 5.75693 20.0162 5.75693Z"
    fill="#144E81"
  />
  <path
    d="M10.3114 13.9572C10.8017 13.9572 11.292 13.8183 11.6761 13.6058L13.7067 15.6365C13.8824 15.8121 14.0908 15.8816 14.3033 15.8816C14.5157 15.8816 14.7241 15.8121 14.8998 15.6365C15.2144 15.3218 15.2144 14.7948 14.8998 14.4802L12.8691 12.4495C13.0775 12.0287 13.2205 11.5752 13.2205 11.0849C13.2205 9.47507 11.9253 8.17578 10.3114 8.17578C8.70163 8.17578 7.40234 9.43829 7.40234 11.0481C7.40234 12.662 8.70163 13.9572 10.3114 13.9572ZM10.3114 9.78559C11.0101 9.78559 11.5739 10.3453 11.5739 11.0481C11.5739 11.7468 11.0142 12.3106 10.3114 12.3106C9.61276 12.3106 9.04892 11.7509 9.04892 11.0481C9.04892 10.3494 9.61276 9.78559 10.3114 9.78559Z"
    fill="#144E81"
  />
  <path
    d="M33.7535 17.8467C32.4583 17.8467 31.3347 18.721 30.9874 19.9141H28.0783C27.6248 19.9141 27.2734 20.2655 27.2734 20.719C27.2734 21.1725 27.6248 21.5239 28.0783 21.5239H30.9874C31.3388 22.717 32.4583 23.5913 33.7535 23.5913C35.3633 23.5913 36.6626 22.2961 36.6626 20.6822C36.6626 19.0724 35.3633 17.8467 33.7535 17.8467ZM33.7535 22.0142C33.0548 22.0142 32.491 21.4544 32.491 20.7517C32.491 20.053 33.0508 19.4892 33.7535 19.4892C34.4563 19.4892 35.016 20.0489 35.016 20.7517C35.016 21.4544 34.4522 22.0142 33.7535 22.0142Z"
    fill="#144E81"
  />
  <path
    d="M11.9222 21.5937C12.3757 21.5937 12.7271 21.2423 12.7271 20.7888C12.7271 20.3353 12.3757 19.9839 11.9222 19.9839H9.01307C8.66169 18.7909 7.54218 17.9165 6.24698 17.9165C4.63718 17.9165 3.33789 19.2117 3.33789 20.8256C3.33789 22.4354 4.63309 23.7347 6.24698 23.7347C7.54218 23.7347 8.66578 22.8603 9.01307 21.6673H11.9222V21.5937ZM6.28375 22.0146C5.58508 22.0146 5.02124 21.4548 5.02124 20.7521C5.02124 20.0534 5.581 19.4895 6.28375 19.4895C6.98243 19.4895 7.54627 20.0493 7.54627 20.7521C7.54627 21.4548 6.98243 22.0146 6.28375 22.0146Z"
    fill="#144E81"
  />
  <path
    d="M25.729 15.8818C25.9373 15.8818 26.1498 15.8123 26.3255 15.6366L28.3561 13.606C28.777 13.8143 29.2305 13.9573 29.7208 13.9573C31.3306 13.9573 32.6299 12.6621 32.6299 11.0483C32.6299 9.43436 31.3347 8.13916 29.7208 8.13916C28.111 8.13916 26.8117 9.43436 26.8117 11.0483C26.8117 11.5385 26.9506 12.0288 27.1631 12.4129L25.1324 14.4436C24.8178 14.7582 24.8178 15.2852 25.1324 15.5998C25.3081 15.7796 25.5206 15.8818 25.729 15.8818ZM29.7249 9.78574C30.4236 9.78574 30.9874 10.3455 30.9874 11.0483C30.9874 11.7469 30.4276 12.3108 29.7249 12.3108C29.0262 12.3108 28.4624 11.751 28.4624 11.0483C28.4624 10.3496 29.0589 9.78574 29.7249 9.78574Z"
    fill="#144E81"
  />
</svg>
